<?xml version="1.0" encoding="UTF-8" standalone="no"?>
<svg
   xmlns:dc="http://purl.org/dc/elements/1.1/"
   xmlns:cc="http://creativecommons.org/ns#"
   xmlns:rdf="http://www.w3.org/1999/02/22-rdf-syntax-ns#"
   xmlns:svg="http://www.w3.org/2000/svg"
   xmlns="http://www.w3.org/2000/svg"
   xmlns:sodipodi="http://sodipodi.sourceforge.net/DTD/sodipodi-0.dtd"
   xmlns:inkscape="http://www.inkscape.org/namespaces/inkscape"
   version="1.1"
   id="svg62"
   width="113.38583"
   height="185.23499"
   viewBox="0 0 113.38583 185.23499"
   sodipodi:docname="kaninchenscaled.svg"
   inkscape:version="1.0.2 (e86c870879, 2021-01-15)">
  <sodipodi:namedview
     pagecolor="#ffffff"
     bordercolor="#666666"
     borderopacity="1"
     objecttolerance="10"
     gridtolerance="10"
     guidetolerance="10"
     inkscape:pageopacity="0"
     inkscape:pageshadow="2"
     inkscape:window-width="1366"
     inkscape:window-height="703"
     id="namedview7"
     showgrid="false"
     inkscape:zoom="2.9720582"
     inkscape:cx="65.050281"
     inkscape:cy="52.975582"
     inkscape:window-x="0"
     inkscape:window-y="0"
     inkscape:window-maximized="1"
     inkscape:current-layer="svg62"
     fit-margin-top="0"
     fit-margin-left="0"
     fit-margin-right="0"
     fit-margin-bottom="0" />
  <metadata
     id="metadata68">
    <rdf:RDF>
      <cc:Work
         rdf:about="">
        <dc:format>image/svg+xml</dc:format>
        <dc:type
           rdf:resource="http://purl.org/dc/dcmitype/StillImage" />
        <dc:title></dc:title>
      </cc:Work>
    </rdf:RDF>
  </metadata>
  <defs
     id="defs66" />
  <path
     style="fill:none;stroke:#000000;stroke-width:0.395221;stroke-opacity:1"
     d="m 44.299213,184.66231 -3.220258,-0.82799 -2.854284,-1.67297 -1.519624,-2.88709 0.229228,-3.01988 0.746967,-2.94518 1.017693,-2.86259 0.92205,-2.28358 -1.995074,-0.22607 -1.995074,-0.22607 -2.427051,-0.28969 -2.420726,-0.33989 -1.114523,0.98963 -1.107408,2.19782 -2.039339,1.37102 -3.49138,0.23911 -3.506398,-0.0115 -3.505213,-0.083 -3.503632,-0.13358 -3.5012599,-0.18417 -3.4969129,-0.25571 -3.4626868,-0.5043 -1.83615599,-2.795 1.13993509,-3.35622 2.1650191,-2.8448 2.6116186,-2.44681 1.9168204,-1.65834 0.8366823,-2.28557 -0.7003311,-2.04447 -1.7508278,-1.39039 -2.7084476,-2.30335 -1.9687525,-2.94123 -0.81257378,-3.45265 -0.10540537,-3.55659 0.18116915,-3.55501 0.3146748,-3.51944 0.3858144,-3.51232 0.4300002,-3.50759 0.470036,-3.50244 0.5205057,-3.49455 0.6540903,-3.47201 1.4967008,-3.04952 2.0330154,-2.7377 2.2073077,-2.60055 2.2867468,-2.53139 2.329826,-2.49187 2.50649,-2.591853 2.547593,-2.552335 2.576444,-2.522694 2.600157,-2.49819 2.622685,-2.474477 2.646398,-2.449578 2.674063,-2.417565 2.719119,-2.368558 2.84796,-2.206122 2.913567,-1.243364 3.008816,-0.998723 3.394946,-1.073815 2.9108,-1.953576 1.453227,-3.235277 1.03034,-3.408383 1.077372,-3.3574 1.334265,-3.262942 1.712096,-3.07956 -0.576232,-2.173714 -2.006535,-3.301674 -1.623172,-2.423889 -1.936976,-2.191894 -2.032621,-2.102969 -2.039734,-2.106527 -1.986379,-2.157905 -1.870185,-2.25671 -1.884807,-3.430911 -1.769799,-3.492171 -1.734228,-3.509955 -1.710515,-3.522128 -1.689174,-3.532325 -1.665065,-3.543232 -1.629099,-3.56003 -1.510534,-3.611013 -0.588879,-2.2968254 -0.314596,-2.3490734 1.313714,-3.3213559 2.236949,-1.8222837 2.712005,-0.95825217 2.887087,-0.099398 3.54513,0.63203697 3.333292,1.3695979 3.07047,1.8913683 2.835708,2.2306257 2.647979,2.4507242 2.501352,2.6578985 2.262639,2.864481 2.027087,3.035335 1.857537,3.143388 1.751618,3.203224 1.689569,3.236621 1.606572,3.094973 1.640956,3.076793 1.763475,3.000121 1.164716,-3.304441 0.455689,-3.574376 0.256103,-3.594532 0.217372,-3.693931 0.560027,-3.65255 1.130727,-3.522049 1.060772,-2.949493 1.124008,-2.9262539 1.242574,-2.8776811 1.61171,-2.6750119 3.288632,-0.7661354 2.619918,2.2650495 0.945368,3.5378183 0.33989,3.6617985 0.173502,3.674407 0.105128,3.677173 0.07114,3.677964 0.0494,3.013518 0.0494,3.013558 0.04901,3.013558 0.0494,3.013558 1.863071,0.247804 2.935699,0.554494 2.833337,0.941811 2.625452,1.418447 2.287537,1.91524 1.753205,2.451159 1.54452,2.591857 1.4718,2.634542 1.42873,2.658254 1.81248,3.353448 1.87769,3.317483 2.04962,3.209587 1.64293,2.489891 0.65488,2.916333 -0.008,2.997354 -0.33159,2.981941 -0.6616,2.995773 -1.57258,2.619523 -2.15988,2.183989 -2.19743,2.245645 -1.26708,2.851122 -0.68729,2.510837 1.10702,3.29377 1.08804,3.646306 0.82957,3.713889 0.54896,3.765263 0.23081,3.79768 -0.14426,3.80163 -0.61259,3.75341 -0.99161,3.57675 -1.07065,3.55382 -1.11452,3.54039 -1.10386,3.62259 -0.98133,3.65738 -0.85012,3.69017 -0.71851,3.71824 -0.594416,3.73958 -0.483355,3.75617 -0.162436,3.58031 0.380598,3.56331 0.886879,3.4732 1.26905,3.35345 1.52793,3.24476 1.69708,3.16058 1.80813,3.09734 1.93461,3.26018 1.81801,3.32539 0.99398,3.60994 -1.82078,2.17925 -3.07837,0.34621 -3.10288,0.0561 -2.83136,-0.0213 -2.824651,-0.19129 -2.76615,-0.59046 -2.895387,-0.98212 -2.359468,-1.88797 -1.442555,-2.69224 -1.163135,-2.83018 -0.828382,-2.09151 -0.828778,-2.0919 -3.008025,-0.15493 -3.008025,-0.15492 -3.008025,-0.15493 -3.098926,-0.17152 -3.097344,-0.19406 -3.09616,-0.21934 -3.091416,-0.27587 -3.633659,-0.12805 -0.717326,1.92117 -0.594412,1.96741 -1.037059,3.62061 0.817316,2.7456 0.684523,3.11513 -0.169155,3.14161 -2.333383,1.11887 -2.66774,0.16955 -2.673668,0.009 -3.816251,-0.0953 -3.806371,-0.27981 v 0"
     id="path74" />
</svg>
